HIERARCHY
ROOT Hips
{
	OFFSET 0.000000 0.000000 0.000000
	CHANNELS 6 Xposition Yposition Zposition Zrotation Xrotation Yrotation
	JOINT Spine
	{
		OFFSET 0.406860 18.546391 0.815231
		CHANNELS 3 Zrotation Xrotation Yrotation
		JOINT Chest
		{
			OFFSET 0.826050 37.654781 1.655167
			CHANNELS 3 Zrotation Xrotation Yrotation
			JOINT Neck
			{
				OFFSET -2.383804 1.025391 3.456116
				CHANNELS 3 Zrotation Xrotation Yrotation
				JOINT Head
				{
					OFFSET -8.969767 7.269681 15.655700
					CHANNELS 3 Zrotation Xrotation Yrotation
					End Site
					{
						OFFSET 0.0 5.0 0.0
					}
				}
			}
			JOINT LeftShoulder
			{
				OFFSET 8.281408 5.223000 7.842974
				CHANNELS 3 Zrotation Xrotation Yrotation
				JOINT LeftArm
				{
					OFFSET 2.176966 -5.076516 0.994917
					CHANNELS 3 Zrotation Xrotation Yrotation
					JOINT LeftForeArm
					{
						OFFSET -3.897216 24.435974 15.909678
						CHANNELS 3 Zrotation Xrotation Yrotation
						JOINT LeftHand
						{
							OFFSET -2.557252 26.149963 7.234854
							CHANNELS 3 Zrotation Xrotation Yrotation
							End Site
							{
								OFFSET 0.0 5.0 0.0
							}
						}
					}
				}
			}
			JOINT RightShoulder
			{
				OFFSET -9.254311 5.318642 -7.023516
				CHANNELS 3 Zrotation Xrotation Yrotation
				JOINT RightArm
				{
					OFFSET -1.204064 -5.465126 -1.814375
					CHANNELS 3 Zrotation Xrotation Yrotation
					JOINT RightForeArm
					{
						OFFSET -18.378969 22.622990 4.627579
						CHANNELS 3 Zrotation Xrotation Yrotation
						JOINT RightHand
						{
							OFFSET -7.640317 25.326229 5.580551
							CHANNELS 3 Zrotation Xrotation Yrotation
							End Site
							{
								OFFSET 0.0 5.0 0.0
							}
						}
					}
				}
			}
		}
	}
	JOINT LeftUpLeg
	{
		OFFSET 5.947876 -0.634766 4.975891
		CHANNELS 3 Zrotation Xrotation Yrotation
		JOINT LeftLeg
		{
			OFFSET -9.445190 -39.892578 9.616089
			CHANNELS 3 Zrotation Xrotation Yrotation
			JOINT LeftFoot
			{
				OFFSET -7.642341 -39.879211 4.340438
				CHANNELS 3 Zrotation Xrotation Yrotation
				End Site
				{
					OFFSET 0.0 5.0 0.0
				}
			}
		}
	}
	JOINT RightUpLeg
	{
		OFFSET -5.947876 0.634766 -4.975891
		CHANNELS 3 Zrotation Xrotation Yrotation
		JOINT RightLeg
		{
			OFFSET 4.176331 -41.845703 -2.575684
			CHANNELS 3 Zrotation Xrotation Yrotation
			JOINT RightFoot
			{
				OFFSET 10.208460 -38.698761 -8.096196
				CHANNELS 3 Zrotation Xrotation Yrotation
				End Site
				{
					OFFSET 0.0 5.0 0.0
				}
			}
		}
	}
}
MOTION
Frames: 15
Frame Time: 0.033521
-40.497215 53.863083 -295.025513 3.311398 3.739799 137.498102 4.266517 -0.160476 0.705470 -10.887619 -2.795397 -1.877516 -0.000001 1.717053 -0.000001 0.896113 4.783666 0.815982 -118.499462 42.564772 23.755377 -0.000001 26.557084 -0.000009 10.557614 0.000004 0.000004 -0.000003 9.295183 0.000001 -61.140208 31.406948 6.633272 -0.000000 0.000000 0.000000 8.820010 0.000002 0.000003 -0.000001 9.400088 0.000000 -2.560280 -3.333799 0.502288 -0.709904 0.001011 0.165188 -0.156619 -7.929191 2.084626 -2.466069 0.280120 -9.106651 -1.552692 0.002211 0.165211 0.911259 2.185599 -1.068116
-38.845284 53.873528 -293.417969 3.168059 3.903258 140.462945 4.075741 -0.362782 0.803916 -8.438447 -4.117873 -0.273981 -0.000005 3.960416 -0.000001 1.454114 4.490249 -3.440718 -68.038174 31.206008 22.120121 -0.000003 11.278002 -0.000006 17.744071 -0.000001 -0.000002 0.000001 4.021622 -0.000002 -50.901595 24.996238 7.118696 0.000000 0.000000 0.000000 4.486717 -0.000004 -0.000000 -0.000005 5.035765 -0.000000 -3.447388 -2.756878 0.984739 -0.937216 0.001332 0.104869 2.073150 -7.408777 2.152884 -0.793554 -0.415448 -7.830828 -1.923376 0.002738 0.104903 1.532192 2.752995 -0.858205
-38.676048 53.972816 -296.909729 3.533770 3.774784 138.715797 5.008564 0.793672 0.781270 -9.786338 -2.010302 0.075180 -0.000003 2.822124 -0.000002 2.619777 6.307832 -1.303151 -45.087932 21.474791 7.868426 0.000001 5.570806 -0.000006 6.997608 -0.000001 0.000001 -0.000007 3.846765 -0.000002 -40.989300 19.944737 4.299809 0.000000 -0.000000 0.000000 6.107605 -0.000000 -0.000001 -0.000002 5.385467 0.000001 -3.728295 -4.921371 0.036027 -1.865680 0.002657 0.176590 1.354750 -7.727781 2.075945 -0.205172 -1.935354 -8.511024 -3.010963 0.004286 0.176659 1.297807 3.224456 -0.808482
-37.549068 54.384148 -295.569275 3.484116 4.150709 138.594412 5.336019 0.607221 0.021345 -8.521599 -0.868076 0.374036 0.000002 2.671750 -0.000001 2.976135 6.298877 -2.756288 -42.808533 25.044195 11.103802 -0.000002 9.032891 -0.000003 3.853759 0.000001 0.000000 -0.000003 8.190107 0.000001 -34.277755 18.030158 4.299753 0.000000 0.000000 0.000000 7.471897 -0.000000 0.000000 -0.000001 -0.321726 -0.000001 -4.270071 -0.206950 0.834501 -2.549353 0.003627 0.108000 0.911561 -10.707545 0.219522 0.985268 -2.534799 -8.480138 -4.014623 0.005712 0.108117 1.231214 3.679589 -0.678853
-36.823524 54.733383 -297.263947 3.409084 4.002148 139.953506 5.336867 1.035209 0.256371 -6.934727 -0.622191 1.153077 -0.000002 2.468921 -0.000001 7.177815 5.401440 -2.334449 -33.549585 21.370287 9.334362 0.000002 9.232228 -0.000007 -0.524562 -0.000001 0.000002 -0.000006 12.036873 -0.000001 -24.684605 14.328216 3.437655 -0.000000 0.000000 -0.000000 4.053087 -0.000001 -0.000003 0.000001 0.195833 -0.000002 -4.979593 -0.898056 1.092821 -2.587822 0.003683 0.089641 0.963496 -9.726518 0.026115 1.619994 -3.811046 -9.319393 -3.434108 0.004887 0.089704 0.802603 4.598414 -0.182469
-36.886108 54.724907 -297.244415 3.343513 3.918390 139.779269 5.320181 0.962475 0.267097 -6.852650 -0.542714 1.068964 0.000000 2.346523 -0.000001 7.120689 5.378266 -2.301905 -33.351216 21.306427 9.469190 0.000000 9.253208 -0.000003 -0.664441 0.000002 0.000005 -0.000004 12.197732 -0.000002 -24.619095 14.668982 3.351265 -0.000000 0.000000 0.000000 4.042597 0.000001 -0.000002 -0.000001 0.349706 -0.000001 -5.013915 -1.047315 1.221197 -2.593075 0.003691 0.093468 1.065205 -10.004844 0.081029 1.575067 -3.728153 -9.306917 -3.500555 0.004982 0.093535 0.980838 4.843712 -0.187314
-35.466202 54.694618 -294.557343 2.949316 3.957522 140.579565 5.705467 1.237904 0.206794 -6.378714 2.602958 -2.196124 -0.000005 -0.793832 -0.000002 6.632475 3.235597 0.683359 -21.617450 14.913022 4.348853 -0.000000 7.721499 -0.000000 -0.433637 -0.000004 -0.000001 -0.000001 14.472575 -0.000001 -17.493667 10.371125 4.230199 -0.000000 0.000000 -0.000000 4.610867 -0.000001 -0.000003 -0.000001 0.433636 0.000001 -7.836601 -0.869298 -0.233340 -1.807978 0.002575 0.058346 1.378708 -11.127026 0.079964 2.873594 -2.824162 -8.482231 -2.070256 0.002947 0.058356 1.703290 3.101572 -0.097444
-35.138885 55.156563 -293.040375 2.465488 4.021515 139.583282 6.124420 0.955094 0.034785 -6.017892 0.268436 -1.058261 0.000001 1.339370 -0.000001 8.288291 3.898044 -2.906378 -19.464222 14.834936 5.435135 -0.000000 7.836895 -0.000009 3.818788 0.000005 0.000003 -0.000001 13.037031 -0.000003 -13.912060 7.281370 -1.177163 -0.000000 -0.000000 -0.000000 7.084158 0.000002 -0.000000 -0.000002 -0.377683 0.000002 -8.633600 -0.196918 -1.560356 -2.120967 0.003019 0.067211 1.594406 -12.058893 0.079307 3.175975 -2.650170 -9.060861 -1.237958 0.001763 0.067173 2.121595 3.030619 0.175790
-35.149899 55.139149 -293.156128 2.482029 4.014762 139.404338 6.087399 0.941547 0.056359 -5.990987 0.381193 -0.962455 -0.000002 1.290413 -0.000002 8.418471 3.766779 -2.807193 -19.739894 15.030893 5.651787 -0.000003 7.962796 -0.000006 3.601967 -0.000003 0.000003 -0.000001 13.106970 0.000001 -13.647175 7.319525 -1.224537 0.000000 0.000000 -0.000000 6.852483 -0.000001 -0.000000 0.000005 -0.559527 -0.000006 -8.645391 -0.126626 -1.594807 -2.145443 0.003052 0.067320 1.621899 -12.267414 0.082368 3.123569 -2.562134 -9.083650 -1.195990 0.001703 0.067281 2.205582 3.159047 0.211068
-36.031342 55.851246 -294.397766 1.730445 3.350243 136.491728 7.120807 1.472499 0.068379 -4.571837 -1.023260 -0.399638 -0.000001 2.752185 -0.000003 6.685422 4.393158 -4.915439 -18.410305 15.196900 7.665892 -0.000001 7.396270 -0.000004 2.440945 -0.000004 -0.000001 -0.000009 13.563341 0.000000 -7.782837 3.255366 -6.643266 0.000000 0.000000 -0.000000 5.742162 0.000000 -0.000004 -0.000003 -2.112219 0.000000 -9.610213 -1.217605 -2.680937 -3.311714 0.004711 0.091443 2.262055 -14.869975 0.867718 1.307542 -6.638670 -11.453334 0.755362 -0.001076 0.091313 4.553213 2.548114 0.289077
-36.337177 55.899273 -296.037659 1.572550 3.176399 136.773026 7.150490 1.551247 -0.605838 -2.588028 -1.379389 -0.624287 -0.000001 2.895561 -0.000000 6.311539 4.874291 -5.042444 -13.190637 11.940116 4.415503 -0.000001 7.690024 -0.000008 3.790808 0.000001 0.000000 -0.000008 12.575416 0.000002 -6.603480 1.441815 -8.135604 0.000000 0.000000 -0.000000 5.207113 -0.000001 -0.000002 0.000001 0.993167 -0.000001 -9.959357 -1.291458 -2.931180 -4.030361 0.005733 0.094788 2.065777 -13.917524 0.461411 0.751032 -6.488195 -12.655690 2.685739 -0.003822 0.094674 6.348970 2.330765 0.620071
-37.277000 55.848358 -294.095520 1.326409 2.476500 139.646468 7.871721 0.811685 -1.173562 -1.023728 -1.756066 0.014672 -0.000003 2.843106 -0.000001 6.004784 5.251564 -4.719873 -10.840549 10.304961 2.299845 -0.000004 8.088690 -0.000002 4.350337 -0.000003 -0.000000 -0.000006 12.085836 0.000001 -7.701872 3.492079 -6.242568 0.000000 -0.000000 -0.000000 4.836422 -0.000003 0.000001 -0.000001 -1.119057 0.000001 -12.034105 -1.881160 -1.874163 -2.647272 0.003767 0.104070 2.438901 -13.063068 0.265025 0.323581 -6.176521 -11.638885 5.399451 -0.007676 0.104344 7.867702 1.739686 0.533336
-38.531887 54.859055 -294.591858 1.330880 2.356664 138.767253 8.425191 0.898716 -1.591037 -0.019096 -1.626356 -1.581171 0.000003 2.409470 0.000001 6.425868 4.517758 -4.790235 -8.197385 9.037976 0.723827 0.000001 8.938475 -0.000004 3.322203 0.000003 0.000002 -0.000001 13.295812 -0.000000 -7.227280 3.499686 -8.284121 0.000000 0.000000 -0.000000 4.743754 -0.000001 -0.000002 -0.000002 0.265776 -0.000002 -12.666994 -1.526466 -2.116789 -2.390245 0.003402 0.101871 2.257280 -14.280619 0.335077 -0.381062 -6.615708 -12.782261 7.371790 -0.010467 0.102471 7.819168 2.797621 0.687602
-40.144329 53.516983 -297.184021 0.824720 1.532377 136.693520 9.829278 1.237554 -2.883962 1.876370 -2.534724 -3.627486 -0.000000 2.734698 -0.000000 6.762563 4.927103 -5.944731 -5.480190 9.501086 -0.212403 -0.000001 12.012386 -0.000007 5.336512 0.000001 0.000002 0.000000 11.687167 -0.000003 -9.068724 2.447674 -8.538837 -0.000000 0.000000 0.000000 5.437921 0.000004 0.000001 -0.000001 1.706558 -0.000003 -14.152166 -2.989954 -3.095321 -2.488153 0.003542 0.112365 1.830467 -15.903698 0.226281 -2.599284 -4.340121 -14.007483 12.547432 -0.017722 0.114236 8.227518 2.377749 0.398221
-41.182739 52.169537 -296.341492 0.496655 1.036347 137.374546 10.885864 0.976209 -3.190380 5.632299 -3.419236 -1.689247 -0.000002 3.406133 -0.000000 7.793787 5.853097 -6.092133 -7.780941 9.979491 4.198567 0.000000 9.788259 -0.000005 3.357176 0.000002 0.000000 -0.000003 11.998406 -0.000001 -7.187760 0.778696 -8.493247 -0.000000 0.000000 0.000000 4.663325 -0.000003 0.000001 -0.000003 4.476235 0.000001 -16.612154 -2.210361 -2.625816 -0.685423 0.000976 0.116228 2.000353 -15.059159 0.505053 -4.333360 -3.467967 -14.051040 17.793008 -0.024929 0.120124 5.898293 2.727678 -0.281856
